<?xml version="1.0" encoding="utf-8"?>
<svg viewBox="0 0 50 50" xmlns="http://www.w3.org/2000/svg">
  <defs/>
  <path d="M 25 11 C 18.3 11 11 12.4 11 15.5 L 11 20 C 11 20.3 11.1 20.6 11.3 20.7 L 22 30.4 L 22 38 C 22 38.3 22.2 38.7 22.5 38.9 C 22.6 39 22.8 39 23 39 C 23.2 39 23.3 39 23.4 38.9 L 27.4 36.9 C 27.7 36.7 28 36.4 28 36 L 28 30.4 L 38.7 20.7 C 38.9 20.5 39 20.2 39 20 L 39 15.5 C 39 12.4 31.7 11 25 11 Z M 25 13 C 33 13 36.9 14.8 37 15.5 C 36.9 16.2 33 18 25 18 C 17 18 13.1 16.2 13 15.5 C 13.1 14.8 17 13 25 13 Z"/>
</svg>