<svg width="1920" height="1080" viewBox="0 0 1920 1080" fill="none" xmlns="http://www.w3.org/2000/svg">
    <g opacity="0.5" clip-path="url(#clip0_41_29330)">
        <rect width="1920" height="1080" fill="url(#paint0_radial_41_29330)"/>
        <path d="M410.911 -120.394C379.207 -263.953 530.299 -277.872 524.093 -39.8968C522.726 5.29262 529.754 56.312 550.057 -14.963C559.385 -59.3125 597.394 -151.408 643.173 -137.661C703.385 -118.91 686.614 -2.41439 647.765 62.0018C631.257 93.639 607.758 124.77 578.519 158.66C566.13 172.721 494.237 238.965 556.451 198.421C574.251 186.67 591.185 173.391 609.979 162.883C704.203 128.749 680.92 209.189 626.152 263.474C606.214 283.291 583.273 304.839 557.21 326.461C502.107 372.263 436.07 422.963 365.038 464.561C78.513 633.655 -288.971 535.148 -388.846 209.234C-388.846 209.234 -303.107 341.464 -181.086 396.36C-17.366 470.017 166.769 437.496 294.719 327.501C431.29 210.304 447.328 43.9032 410.911 -120.394ZM633.433 -96.5794C622.08 -101.687 603.082 -69.5719 592.278 -34.6855C582.985 -3.91453 569.314 62.6942 528.915 66.5594C504.845 68.6422 484.9 34.6537 486.735 -41.1476C490.618 -181.262 430.393 -234.509 453.816 -119.69C488.416 47.9013 455.076 225.59 327.976 346.251C199.866 468.397 5.80448 507.76 -165.422 430.726C-256.283 390.01 -330.946 320.119 -377.566 232.141C-244.455 526.292 87.2069 586.415 351.197 429.571C418.61 389.29 481.344 340.876 533.768 297.753C554.871 280.293 650.245 213.323 638.92 188.809C632.797 177.033 564.177 246.217 521.191 250.738C481.894 254.644 461.02 229.356 503.307 185.126C520.278 167.632 535.662 151.136 549.713 135.076C577.535 102.818 599.701 73.7259 614.938 44.9406C638.087 10.2504 661.504 -83.9508 633.433 -96.5794ZM375.689 168.613C379.415 127.46 336.887 86.2807 336.822 62.8344C336.312 -7.64028 450.223 34.9276 375.689 168.613ZM557.3 -155.846C563.837 -328.803 448.353 -336.785 469.025 -281.567C483.447 -243.67 529.804 -245.543 557.3 -155.846ZM660.929 125.502C819.567 35.0238 750.088 -73.5608 715.39 -6.58884C691.561 38.8809 719.553 60.9504 660.929 125.502Z" fill="#0173EF" fill-opacity="0.5"/>
        <path d="M204.723 1673.06C303.573 1819.19 141.178 1901.53 42.8656 1633.32C24.4073 1582.3 -5.99364 1528.49 2.87537 1616.98C12.0819 1670.58 10.4067 1790.13 -46.7418 1795.03C-122.202 1800.74 -155.01 1663.37 -140.157 1574.33C-135.732 1531.74 -123.284 1486.62 -105.653 1435.88C-98.0505 1414.72 -47.1444 1309.03 -98.6174 1381.77C-113.278 1402.75 -126.297 1425.05 -142.615 1445.08C-232.633 1524.83 -242.231 1424.8 -205.141 1340.02C-191.661 1309.1 -175.598 1274.92 -156.085 1239.27C-114.869 1163.81 -63.6213 1078.05 -2.77717 1000.23C242.08 684.895 695.588 632.279 951.126 951.685C951.126 951.685 797.006 842.092 636.61 834.811C421.401 825.043 230.37 942.747 136.277 1122.03C35.751 1313.17 91.4436 1505.89 204.723 1673.06ZM-54.0431 1744.9C-39.1196 1745.58 -32.1274 1701.35 -35.5027 1657.65C-38.7428 1619.22 -52.9472 1538.87 -9.58901 1516.69C16.3407 1503.72 53.6207 1532.82 85.0937 1618.19C142.723 1776.21 233.453 1808.98 156.549 1691.25C43.8401 1519.6 2.4566 1306.63 90.8858 1115.82C179.784 922.911 378.863 793.185 603.94 803.401C723.305 808.642 837.501 853.593 928.413 931.121C649.844 661.843 253.272 741.438 28.1359 1033.14C-29.254 1107.89 -77.8274 1189.64 -117.24 1260.93C-133.059 1289.74 -209.84 1406.62 -186.366 1428.96C-174.328 1439.39 -128.373 1331.87 -82.4186 1307.81C-40.3079 1286.08 -5.8401 1305.06 -33.4534 1373.1C-44.6493 1400.12 -54.5167 1425.32 -63.089 1449.45C-79.8612 1497.74 -91.7238 1540 -95.992 1578.85C-106.475 1627.78 -90.9414 1743.22 -54.0431 1744.9ZM116.213 1335.09C130.255 1382.64 195.906 1409.77 206.347 1435.9C238.081 1514.29 92.1834 1517.18 116.213 1335.09ZM57.0956 1777.35C126.286 1973.18 258.645 1931.02 211.166 1878.56C178.32 1842.66 127.434 1865.25 57.0956 1777.35ZM-182.923 1509.31C-319.88 1680.4 -194.356 1770.81 -185.265 1680.75C-178.789 1619.49 -219.775 1607.25 -182.923 1509.31Z" fill="#0173EF" fill-opacity="0.5"/>
        <path d="M1727.52 798.125C1826.37 944.254 1663.98 1026.6 1565.66 758.378C1547.21 707.362 1516.81 653.555 1525.67 742.045C1534.88 795.643 1533.21 915.189 1476.06 920.097C1400.6 925.806 1367.79 788.433 1382.64 699.394C1387.07 656.801 1399.51 611.681 1417.15 560.945C1424.75 539.781 1475.65 434.091 1424.18 506.831C1409.52 527.812 1396.5 550.113 1380.18 570.147C1290.17 649.892 1280.57 549.861 1317.66 465.084C1331.14 434.161 1347.2 399.978 1366.71 364.332C1407.93 288.871 1459.18 203.111 1520.02 125.294C1764.88 -190.042 2218.39 -242.659 2473.92 76.748C2473.92 76.748 2319.81 -32.8459 2159.41 -40.1263C1944.2 -49.8947 1753.17 67.8099 1659.08 247.096C1558.55 438.228 1614.24 630.948 1727.52 798.125ZM1468.76 869.961C1483.68 870.639 1490.67 826.411 1487.3 782.717C1484.06 744.28 1469.85 663.93 1513.21 641.753C1539.14 628.786 1576.42 657.881 1607.89 743.253C1665.52 901.274 1756.25 934.042 1679.35 816.314C1566.64 644.658 1525.26 431.694 1613.69 240.886C1702.58 47.9738 1901.66 -81.7528 2126.74 -71.5365C2246.1 -66.295 2360.3 -21.3448 2451.21 56.1831C2172.64 -213.094 1776.07 -133.5 1550.94 158.207C1493.55 232.953 1444.97 314.703 1405.56 385.991C1389.74 414.801 1312.96 531.685 1336.43 554.023C1348.47 564.452 1394.43 456.929 1440.38 432.876C1482.49 411.141 1516.96 430.121 1489.35 498.162C1478.15 525.182 1468.28 550.387 1459.71 574.517C1442.94 622.805 1431.08 665.061 1426.81 703.91C1416.32 752.845 1431.86 868.287 1468.76 869.961ZM1639.01 460.149C1653.05 507.705 1718.71 534.836 1729.15 560.963C1760.88 639.355 1614.98 642.241 1639.01 460.149ZM1579.89 902.41C1649.09 1098.24 1781.44 1056.08 1733.97 1003.62C1701.12 967.723 1650.23 990.312 1579.89 902.41ZM1339.88 634.377C1202.92 805.462 1328.44 895.869 1337.53 805.815C1344.01 744.553 1303.02 732.312 1339.88 634.377Z" fill="#0173EF" fill-opacity="0.5"/>
    </g>
    <defs>
        <radialGradient id="paint0_radial_41_29330" cx="0" cy="0" r="1" gradientUnits="userSpaceOnUse" gradientTransform="translate(960 540) rotate(90) scale(540 960)">
            <stop stop-color="#007AFF"/>
            <stop offset="1" stop-color="#5FA1E9"/>
        </radialGradient>
        <clipPath id="clip0_41_29330">
            <rect width="1920" height="1080" fill="white"/>
        </clipPath>
    </defs>
</svg>
