<?xml version="1.0" encoding="utf-8"?>
<svg viewBox="0 0 350 70" xmlns="http://www.w3.org/2000/svg">
  <path d="M 61.767 12.568 L 48.007 34.968 L 61.767 57.432 L 51.591 57.432 L 42.887 43.288 L 34.183 57.432 L 24.007 57.432 L 24.007 12.568 L 32.647 12.568 L 32.647 43.288 L 42.887 26.712 L 51.591 12.568 L 61.767 12.568 Z M 115.285 12.568 L 124.437 12.568 L 110.101 57.432 L 100.949 57.432 L 97.365 46.232 L 93.781 57.432 L 84.693 57.432 L 70.357 12.568 L 79.445 12.568 L 89.237 43.16 L 92.821 31.96 L 86.613 12.568 L 95.765 12.568 L 97.365 17.688 L 99.029 12.568 L 108.117 12.568 L 101.909 31.96 L 105.493 43.16 L 115.285 12.568 Z M 147.222 57.432 L 138.582 57.432 L 138.582 12.568 L 147.222 12.568 L 147.222 57.432 Z M 199.192 12.568 L 185.432 34.968 L 199.192 57.432 L 189.016 57.432 L 180.312 43.288 L 171.608 57.432 L 161.432 57.432 L 161.432 12.568 L 170.072 12.568 L 170.072 43.288 L 180.312 26.712 L 189.016 12.568 L 199.192 12.568 Z M 222.047 48.728 L 251.167 48.728 L 251.167 57.432 L 213.407 57.432 L 213.407 12.568 L 222.047 12.568 L 222.047 48.728 Z M 274.022 57.432 L 265.382 57.432 L 265.382 12.568 L 274.022 12.568 L 274.022 57.432 Z M 317.352 12.568 L 325.992 12.568 L 325.992 57.432 L 315.816 57.432 L 296.872 26.712 L 296.872 57.432 L 288.232 57.432 L 288.232 12.568 L 298.408 12.568 L 317.352 43.288 L 317.352 12.568 Z" fill="black"/>
</svg>