<svg width="266" height="200" viewBox="0 0 266 200" fill="none" xmlns="http://www.w3.org/2000/svg">
    <path d="M104.964 76.445C81.0194 94.2771 65.8534 67.4558 110.441 48.7779C118.924 45.2661 127.787 39.7139 112.896 41.8922C103.905 43.8599 83.6833 44.494 82.4151 34.8706C80.8709 22.1578 103.842 15.5576 119.008 17.3852C126.243 17.8065 133.966 19.5645 142.678 22.1557C146.314 23.2786 164.572 31.0733 151.88 22.93C148.221 20.6126 144.351 18.5828 140.839 15.9779C126.667 1.37223 143.504 -1.0178 158.12 4.60178C163.451 6.64316 169.353 9.0964 175.529 12.1216C188.602 18.5101 203.493 26.5155 217.114 36.2042C272.301 75.1779 284.676 151.44 232.641 197.09C232.641 197.09 249.985 170.195 249.985 143.024C249.985 106.568 228.621 75.1768 197.591 60.646C164.508 45.1186 132.356 56.0123 104.964 76.445ZM90.8345 33.2517C90.8345 35.7797 98.3648 36.6224 105.726 35.7165C112.198 34.8738 125.673 31.856 129.754 39.0156C132.146 43.2995 127.513 49.825 113.322 55.8006C87.0508 66.7553 82.2076 82.3448 101.52 68.4407C129.673 48.0701 165.357 39.44 198.292 52.9249C231.586 66.473 255.044 99.132 255.044 137.26C255.074 157.479 248.352 177.129 235.943 193.092C279.327 143.934 262.829 77.5037 211.788 41.6826C198.712 32.5543 184.519 24.9703 172.165 18.8546C167.173 16.4013 146.825 4.31843 143.229 8.45807C141.558 10.5732 160.088 17.5168 164.506 25.1009C168.504 32.053 165.56 38.0254 153.845 33.8795C149.192 32.1941 144.855 30.7194 140.71 29.4554C132.418 26.9906 125.184 25.3095 118.584 24.886C110.231 23.4893 90.8345 27.0011 90.8345 33.2517ZM161.42 58.889C153.488 61.6277 149.406 72.9342 145.069 74.8998C132.06 80.8659 130.453 56.224 161.42 58.889ZM86.2019 52.2887C53.6272 65.4882 61.7706 87.5399 70.2743 79.1111C76.0908 73.2829 71.8817 64.8541 86.2019 52.2887ZM129.671 9.65677C99.6983 -12.1832 85.3781 9.7305 100.672 10.5763C111.078 11.201 112.832 4.17834 129.671 9.65677Z" fill="#007aff"/>
    <path fill-rule="evenodd" clip-rule="evenodd" d="M65.6521 133.102C65.5553 133.326 65.5052 133.567 65.5046 133.81C64.662 138.094 64.0236 144.693 63.6855 151.007L82.4898 152.912L91.1409 147.994L65.6521 133.102ZM9.89445 118.922L11.1427 123.768L11.8621 126.581L14.6534 127.279L19.4988 128.474L14.6534 129.807L11.8621 130.515L11.1427 133.254L9.89445 138.1L8.68942 133.254L7.92785 130.515L5.24077 129.807L0.333252 128.474L5.24077 127.279L7.92785 126.581L8.68942 123.768L9.89445 118.922ZM42.0467 97.3678L44.1618 105.437L45.2826 110.072L49.9173 111.203L57.9132 113.31L49.9173 115.417L45.2826 116.611L44.1618 121.181L42.0467 129.177L39.9526 121.181L38.8098 116.605L34.1751 115.411L26.1802 113.304L34.1751 111.197L38.8098 110.066L39.9526 105.431L42.0467 97.3678ZM35.7214 136.763L36.4408 139.502L36.8432 141.046L38.3874 141.459L41.1998 142.167L38.3874 142.865L36.8432 143.286L36.4408 144.83L35.7214 147.569L35.024 144.83L34.6027 143.286L33.0585 142.865L30.3936 142.167L33.0585 141.459L34.6027 141.046L35.024 139.502L35.7214 136.763ZM211.858 85.8474C190.515 86.0581 149.353 87.1799 126.043 88.7241C114.388 89.4962 104.404 97.9935 96.5351 105.931C95.9852 106.556 95.3511 107.19 94.7159 107.828C133.277 113.726 192.888 116.531 224.359 114.427C195.571 124.96 137.698 121.735 99.5603 116.393C111.3 124.82 115.847 136.478 117.477 141.884C150.622 148.135 187.28 146.94 235.316 144.064C204.98 153.9 146.835 153.754 113.965 149.33L111.004 149.055L110.454 146.168C110.454 146.105 108.698 135.57 99.772 126.718C91.3526 118.363 80.2483 113.235 70.7082 123.418C68.4455 125.872 66.8061 128.835 65.9281 132.055L98.5027 142.23L101.527 151.078L85.2401 160.279L63.6855 151.29C63.537 154.102 63.3895 156.905 63.3895 159.37C75.7631 163.928 94.9898 168.919 109.185 171.799C107.07 163.719 105.673 159.298 105.673 159.298L103.706 152.84C134.043 160.003 196.967 161.757 227.384 158.033C207.861 164.495 162.425 170.958 114.938 163.3C115.636 165.901 116.63 169.275 117.603 173.347C148.38 176.995 182.647 180.72 225.333 177.492C201.875 183.321 155.952 186.197 114.028 180.719L111.426 180.369L110.729 177.841C110.308 176.011 109.886 174.403 109.46 172.859C96.8311 174.544 78.5766 172.573 63.5338 166.883C64.2322 175.947 67.6166 183.033 77.7276 184.938C116.479 192.1 107.066 193.293 212.405 195.958C171.263 202.494 119.018 201.014 75.681 192.172C59.6049 188.935 56.0298 178.824 55.8191 165.838C55.6706 156.912 56.2405 142.73 57.6383 133.606C58.4809 127.918 61.0227 122.363 64.9358 118.153C68.3202 114.643 72.5294 111.977 77.4369 110.78L66.6275 108.252C58.9076 106.422 59.3299 97.1571 67.4101 96.2376C71.2601 95.8162 75.3429 95.4655 79.6995 95.1906C82.3655 95.042 84.7555 96.2376 86.2997 98.4159C87.6322 100.457 88.2663 102.065 88.1189 103.546C89.1132 102.492 90.0223 101.504 90.9956 100.52C100.476 90.9709 111.789 81.8436 125.559 80.9968C154.409 79.0997 208.77 84.7941 211.858 85.8474Z" fill="#E74646"/>
    <mask id="mask0_30_51" style="mask-type:luminance" maskUnits="userSpaceOnUse" x="0" y="80" width="236" height="120">
        <path d="M65.6521 133.102C65.5553 133.326 65.5052 133.567 65.5046 133.81C64.662 138.094 64.0236 144.693 63.6855 151.007L82.4898 152.912L91.1409 147.994L65.6521 133.102ZM9.89445 118.922L11.1427 123.768L11.8621 126.581L14.6534 127.279L19.4988 128.474L14.6534 129.807L11.8621 130.515L11.1427 133.254L9.89445 138.1L8.68942 133.254L7.92785 130.515L5.24077 129.807L0.333252 128.474L5.24077 127.279L7.92785 126.581L8.68942 123.768L9.89445 118.922ZM42.0467 97.3678L44.1618 105.437L45.2826 110.072L49.9173 111.203L57.9132 113.31L49.9173 115.417L45.2826 116.611L44.1618 121.181L42.0467 129.177L39.9526 121.181L38.8098 116.605L34.1751 115.411L26.1802 113.304L34.1751 111.197L38.8098 110.066L39.9526 105.431L42.0467 97.3678ZM35.7214 136.763L36.4408 139.502L36.8432 141.046L38.3874 141.459L41.1998 142.167L38.3874 142.865L36.8432 143.286L36.4408 144.83L35.7214 147.569L35.024 144.83L34.6027 143.286L33.0585 142.865L30.3936 142.167L33.0585 141.459L34.6027 141.046L35.024 139.502L35.7214 136.763ZM211.858 85.8474C190.515 86.0581 149.353 87.1799 126.043 88.7241C114.388 89.4962 104.404 97.9935 96.5351 105.931C95.9852 106.556 95.3511 107.19 94.7159 107.828C133.277 113.726 192.888 116.531 224.359 114.427C195.571 124.96 137.698 121.735 99.5603 116.393C111.3 124.82 115.847 136.478 117.477 141.884C150.622 148.135 187.28 146.94 235.316 144.064C204.98 153.9 146.835 153.754 113.965 149.33L111.004 149.055L110.454 146.168C110.454 146.105 108.698 135.57 99.772 126.718C91.3526 118.363 80.2483 113.235 70.7082 123.418C68.4455 125.872 66.8061 128.835 65.9281 132.055L98.5027 142.23L101.527 151.078L85.2401 160.279L63.6855 151.29C63.537 154.102 63.3895 156.905 63.3895 159.37C75.7631 163.928 94.9898 168.919 109.185 171.799C107.07 163.719 105.673 159.298 105.673 159.298L103.706 152.84C134.043 160.003 196.967 161.757 227.384 158.033C207.861 164.495 162.425 170.958 114.938 163.3C115.636 165.901 116.63 169.275 117.603 173.347C148.38 176.995 182.647 180.72 225.333 177.492C201.875 183.321 155.952 186.197 114.028 180.719L111.426 180.369L110.729 177.841C110.308 176.011 109.886 174.403 109.46 172.859C96.8311 174.544 78.5766 172.573 63.5338 166.883C64.2322 175.947 67.6166 183.033 77.7276 184.938C116.479 192.1 107.066 193.293 212.405 195.958C171.263 202.494 119.018 201.014 75.681 192.172C59.6049 188.935 56.0298 178.824 55.8191 165.838C55.6706 156.912 56.2405 142.73 57.6383 133.606C58.4809 127.918 61.0227 122.363 64.9358 118.153C68.3202 114.643 72.5294 111.977 77.4369 110.78L66.6275 108.252C58.9076 106.422 59.3299 97.1571 67.4101 96.2376C71.2601 95.8162 75.3429 95.4655 79.6995 95.1906C82.3655 95.042 84.7555 96.2376 86.2997 98.4159C87.6322 100.457 88.2663 102.065 88.1189 103.546C89.1132 102.492 90.0223 101.504 90.9956 100.52C100.476 90.9709 111.789 81.8436 125.559 80.9968C154.409 79.0997 208.77 84.7941 211.858 85.8474Z" fill="white"/>
    </mask>
    <g mask="url(#mask0_30_51)">
        <path d="M284.899 -12.4063H0.33429V202.493H284.899V-12.4063Z" fill="#007aff"/>
    </g>
</svg>
